PathFileType	4	(X/Y/Z)	C:/Users/beibeiliu/ov580/test_trc/User1\sequence.31_training_dense_left.trc
DataRate	CameraRate	NumFrames	NumMarkers	Units	OrigDataRate	OrigDataStartFrame	OrigNumFrames
120	120	11	19	mm	120	161	256
Frame#	Time	ThumbCMC			ThumbMCP			ThumbIP			ThumbTip			IndexMCP			IndexPIP			IndexTip			MiddleMCP			MiddlePIP			MiddleTip			RingMCP			RingPIP			RingTip			PinkyMCP			PinkyPIP			PinkyTip			BackHand1			BackHand2			BackHand3	
		X0	Y0	Z0	X1	Y1	Z1	X2	Y2	Z2	X3	Y3	Z3	X4	Y4	Z4	X5	Y5	Z5	X6	Y6	Z6	X7	Y7	Z7	X8	Y8	Z8	X9	Y9	Z9	X10	Y10	Z10	X11	Y11	Z11	X12	Y12	Z12	X13	Y13	Z13	X14	Y14	Z14	X15	Y15	Z15	X16	Y16	Z16	X17	Y17	Z17	X18	Y18	Z18	
160	1.33333	-124.281	-16.9314	43.7636	-103.935	-39.9831	18.3068	-93.5267	-53.5479	-7.15536	-96.0251	-69.6375	-33.1464	-123.618	14.11	-37.7896	-111.679	7.47722	-66.3522	-98.5306	-21.4046	-80.7013	-149.421	11.8184	-50.8433	-137.901	1.55472	-81.3381	-121.871	-32.2739	-93.1171	-167.467	-7.66548	-48.9442	-153.088	-26.7894	-79.5591	-139.353	-51.1278	-76.7337	-181.922	-35.3719	-39.2971	-161.435	-57.9196	-51.8533	-138.616	-70.625	-33.6314	-180.81	-2.00948	4.04242	-189.585	-5.01014	39.1828	-155.693	10.6984	30.9906	
161	1.34167	-124.175	-16.0119	42.9116	-101.369	-41.0401	18.3921	-95.5395	-52.6867	-8.66105	-95.9283	-68.3577	-32.4414	-120.486	14.5443	-35.1267	-110.65	8.94425	-64.637	-99.5525	-22.7616	-79.1748	-151.256	9.55169	-47.6867	-140.407	0.724304	-81.3346	-123.472	-30.306	-92.9137	-168.054	-7.83812	-52.5296	-150.799	-22.6461	-76.877	-137.324	-53.8707	-75.9496	-181.575	-34.4361	-38.1766	-162.184	-52.4268	-51.8448	-142.125	-72.8036	-37.7938	-182.313	-3.83347	3.50432	-193.79	-6.52211	35.6905	-158.964	9.12894	27.5684	
162	1.35	-125.027	-14.0171	41.6005	-102.337	-38.1582	17.0683	-93.3757	-51.3124	-5.22955	-95.4263	-64.9531	-28.4844	-121.551	16.0143	-35.752	-111.876	4.8359	-68.8887	-98.4288	-22.6863	-79.7345	-151.813	11.1195	-51.0678	-136.302	1.45722	-82.813	-120.238	-28.2035	-92.6277	-164.665	-8.36516	-53.7115	-152.511	-24.5894	-77.0185	-137.414	-51.6312	-77.5206	-180.236	-35.6087	-41.3923	-162.876	-56.2758	-53.2117	-138.524	-74.1852	-36.2494	-183.999	-4.63795	5.45576	-193.038	-5.5417	35.8661	-156.229	10.9109	31.16	
163	1.35833	-123.608	-11.4261	41.7217	-103.905	-34.4762	21.4927	-91.742	-47.4125	-7.41168	-90.8514	-63.2925	-25.867	-123.518	14.9051	-37.0029	-112.908	5.69221	-68.2275	-99.8019	-18.9953	-79.2622	-151.313	10.6564	-50.3875	-141.769	1.11312	-80.5509	-120.732	-26.0347	-92.5045	-168.201	-10.3738	-49.7946	-152.823	-22.5994	-76.4153	-133.438	-50.4334	-77.8652	-178.45	-35.9603	-37.7413	-160.912	-53.9658	-52.1418	-140.222	-71.4477	-41.6083	-186.526	-4.39384	6.21532	-192.163	-5.01758	39.5673	-157.739	10.5088	31.8856	
164	1.36667	-126.536	-9.097	40.8845	-104.07	-31.3286	22.6311	-93.6188	-42.9538	-3.55174	-84.4893	-58.7289	-22.7434	-124.177	16.4116	-38.9353	-112.352	9.01682	-67.3738	-100.597	-15.9956	-79.1755	-152.067	9.9122	-48.5396	-140.849	-0.255069	-81.9745	-121.607	-29.655	-94.5158	-168.719	-11.7224	-50.7435	-156.215	-25.5975	-78.3481	-136.149	-47.4533	-80.7874	-181.405	-39.0305	-36.8663	-158.769	-54.0948	-51.7988	-134.041	-70.262	-43.1472	-187.273	-8.10394	5.92714	-197.989	-7.95731	39.5345	-160.931	12.0863	26.8502	
165	1.375	-127.053	-5.45046	40.8566	-105.54	-26.3365	22.7893	-89.9639	-37.9741	-1.46284	-81.0407	-52.9171	-19.435	-128.217	15.5337	-36.5979	-116.924	5.83783	-69.3826	-103.485	-17.0219	-82.7777	-156.789	5.66015	-52.1255	-141.736	-2.54407	-84.5654	-120.568	-25.7918	-97.8576	-168.131	-12.3653	-51.4707	-154.495	-25.7798	-80.0188	-136.998	-46.6523	-85.5713	-179.485	-40.0008	-38.8656	-166.074	-56.9742	-54.4563	-139.194	-69.5755	-49.732	-191.8	-8.5388	4.55563	-197.988	-6.23736	35.6587	-167.633	10.9058	25.415	
166	1.38333	-128.862	-0.583438	40.0611	-102.858	-19.5106	24.8248	-84.301	-29.3327	2.63288	-78.663	-44.8174	-15.5155	-132.919	14.1569	-39.1239	-120.022	7.32644	-71.0945	-100.562	-12.2302	-87.1851	-159.865	4.461	-56.4981	-145.927	-3.76944	-85.9522	-125.76	-25.9018	-103.863	-176.932	-18.6872	-52.1608	-160.048	-26.9047	-79.2467	-143.62	-48.8177	-89.8528	-183.251	-48.2154	-40.0483	-163.887	-59.4939	-53.8955	-141.886	-73.6797	-58.4945	-195.236	-11.9756	3.65475	-199.669	-8.65674	36.4609	-166.792	11.8528	22.6317	
167	1.39167	-134.819	4.4415	40.8537	-105.611	-12.4916	22.2482	-85.5142	-20.5247	8.07724	-70.7184	-36.1477	-10.2644	-138.637	14.0692	-47.0185	-126.701	5.88309	-74.9894	-108.717	-11.3729	-91.4024	-166.655	-3.03964	-57.9578	-153.814	-8.13428	-86.4191	-133.636	-28.8849	-108.593	-177.52	-23.3321	-50.6503	-165.14	-32.9994	-81.7537	-145.337	-51.3421	-95.4097	-183.175	-51.8472	-36.9129	-169.549	-67.6291	-53.1287	-146.922	-78.8432	-64.6116	-197.202	-16.4976	-0.0331101	-203.764	-13.998	34.4156	-172.773	10.0826	18.587	
168	1.4	-140.334	6.89923	32.8878	-109.536	-5.45534	25.4925	-88.6406	-15.1523	5.40749	-67.046	-24.7278	-4.79836	-145.18	11.4325	-49.1741	-133.768	3.47757	-78.7251	-117.12	-11.0202	-96.6696	-168.948	-7.40055	-60.6449	-159.269	-14.0756	-89.2544	-137.378	-30.8776	-114.394	-178.711	-31.7576	-57.1711	-165.428	-37.7324	-82.802	-149.336	-51.8325	-96.7851	-181.608	-60.812	-35.7114	-165.299	-72.9604	-53.3447	-146.892	-79.8615	-65.041	-197.775	-22.4819	0.729813	-206.921	-20.2175	31.3771	-180.242	9.76062	17.0274	
169	1.40833	-144.263	13.1795	34.7321	-114.042	-0.476127	19.6637	-91.5357	-6.55257	4.00859	-70.9128	-13.176	-2.14178	-150.996	8.49614	-52.0323	-138.426	4.14926	-79.6167	-122.315	-8.72684	-97.3516	-174.545	-16.2108	-60.2984	-160.573	-18.3025	-91.7683	-144.488	-31.3027	-113.59	-180.747	-37.5946	-52.3177	-171.191	-47.7826	-82.105	-150.709	-59.9233	-102.555	-177.326	-65.1284	-35.4121	-164.185	-81.5396	-48.6071	-144.971	-88.1442	-63.6677	-197.27	-27.5482	0.283352	-208.91	-21.584	31.5789	-186.741	4.45833	13.1236	
170	1.41667	-149.227	16.1641	27.3764	-115.193	10.5983	21.8384	-94.6978	6.0888	8.14408	-70.5609	-1.4348	-4.41828	-154.848	4.00647	-57.0761	-144.231	-1.06688	-81.01	-126.704	-12.9056	-101.071	-176.151	-22.0687	-63.411	-163.599	-23.7477	-93.1537	-148.229	-40.1933	-113.856	-179.818	-46.442	-56.6815	-167.716	-52.3909	-83.7362	-151.898	-61.5626	-98.7961	-175.72	-73.614	-30.5248	-160.755	-82.2125	-45.4813	-136.835	-90.723	-62.2162	-197.726	-36.3611	0.123076	-210.221	-29.4845	30.2087	-190.905	1.06508	11.8734	
